<svg xmlns="http://www.w3.org/2000/svg" width="512" height="512" viewBox="0 0 512 512">
  <defs>
    <linearGradient id="g" x1="0" y1="0" x2="1" y2="1">
      <stop offset="0" stop-color="#2563eb"/>
      <stop offset="1" stop-color="#1d4ed8"/>
    </linearGradient>
  </defs>
  <rect width="512" height="512" rx="112" fill="url(#g)"/>
  <circle cx="170" cy="180" r="36" fill="#ffffff" opacity="0.95"/>
  <path d="M170 236c-38 0-68 30-68 68v80c0 14 11 26 26 26h60c73 0 132-59 132-132s-59-132-132-132h-60c-14 0-26 12-26 26v64h68c40 0 72 32 72 72s-32 72-72 72h-16v-16c0-38-30-68-68-68z" fill="#ffffff"/>
</svg>
